<?xml version="1.0" encoding="utf-8"?>
<!-- Generator: Adobe Illustrator 24.1.0, SVG Export Plug-In . SVG Version: 6.00 Build 0)  -->
<svg version="1.1" id="Layer_1" xmlns="http://www.w3.org/2000/svg" xmlns:xlink="http://www.w3.org/1999/xlink" x="0px" y="0px"
	 viewBox="0 0 283.5 283.5" style="enable-background:new 0 0 283.5 283.5;" xml:space="preserve">
<style type="text/css">
	.st0{fill:#FFFFFF;}
</style>
<path class="st0" d="M0,0v283.5h18c0-5.4-0.4-10.8,0.1-16.1c1.3-13.3,5.1-26.1,10.9-38.1c11.1-23,27.5-41.3,49.6-54.3
	c2.5-1.4,4.1-1.6,6.5,0.5c15.6,13.3,34.1,20,54.3,20.6c21.3,0.6,41-5.7,57.8-19.2c3.8-3,6.3-3.2,10.1-0.8c30.3,19.6,50,46.4,57,82.1
	c1.3,6.7,2,13.4,2.7,20.2c0.2,1.7,0.1,3.4,0.1,5.2h16.3V0H0z M142.2,181.8c-41.7,0.7-76.3-33.8-75.9-76.4
	c0.5-42.2,34.7-75.7,76.8-75c41.6,0.7,74.8,34,74.6,76.3C217.6,149.5,182.2,182.4,142.2,181.8z"/>
</svg>
