<?xml version="1.0" encoding="utf-8"?>
<!-- Generator: Adobe Illustrator 24.1.0, SVG Export Plug-In . SVG Version: 6.00 Build 0)  -->
<svg version="1.1" id="Layer_1" xmlns="http://www.w3.org/2000/svg" xmlns:xlink="http://www.w3.org/1999/xlink" x="0px" y="0px"
	 viewBox="0 0 283.5 283.5" style="enable-background:new 0 0 283.5 283.5;" xml:space="preserve">
<style type="text/css">
	.st0{fill:#FFFFFF;}
</style>
<g>
	<path class="st0" d="M22.8,123.9c10.7,6,20.6,11.6,30.6,17.1c0.5,0.3,1.4,0.4,1.8,0.1c9.9-5.6,19.8-11.3,30.3-17.3
		c-3-1.8-5.5-3.3-8-4.7c-4.5-2.6-9.1-5-13.5-7.8c-0.9-0.6-1.1-2.3-1.6-3.4c1.2-0.3,2.8-1.3,3.6-0.8c8.6,4.7,17.1,9.6,25.5,14.6
		c0.8,0.5,1.3,2.2,1.3,3.3c0.1,13.1,0.1,26.2-0.1,39.2c0,1.3-1.1,3.1-2.3,3.8c-11.2,6.6-22.5,13.1-33.8,19.3
		c-1.3,0.7-3.7,0.7-5.1-0.1c-11.3-6.2-22.4-12.6-33.5-19.2c-1.2-0.7-2.5-2.6-2.5-4c-0.2-12.8-0.1-25.6-0.2-38.5
		c0-2.4,0.8-3.9,2.9-5.1c7.7-4.2,15.1-8.7,22.8-12.9c1.2-0.7,4-0.7,4.5,0c1.4,2-0.3,3.3-2.1,4.3C36.9,115.8,30.2,119.7,22.8,123.9z
		 M56.9,181.2c0.7-0.2,1.3-0.2,1.9-0.5c9.2-5.2,18.5-10.5,27.7-15.9c0.9-0.6,1.7-2.2,1.7-3.4c0.1-6-0.1-12-0.1-18.1
		c0-4.9,0-9.7,0-14.6c-0.5,0-0.8,0-1,0.1c-9.6,5.5-19.2,10.9-28.8,16.5c-0.8,0.5-1.5,2-1.5,3.1c-0.1,4.2,0.1,8.5,0.1,12.7
		C56.9,167.7,56.9,174.3,56.9,181.2z M51.5,181.7c0-11.7,0-22.8-0.1-33.9c0-0.9-0.9-2.1-1.8-2.7c-5.1-3.2-10.2-6.3-15.4-9.2
		c-4.4-2.5-9-4.9-13.7-7.4c-0.1,0.9-0.2,1.3-0.2,1.8c0,10.5-0.1,20.9-0.1,31.4c0,1,0.6,2.5,1.4,2.9
		C31.4,170.2,41.2,175.8,51.5,181.7z"/>
	<path class="st0" d="M144.6,96.3c10-5.7,19.6-11.2,29.2-16.6c1.9-1,4.3-3.8,6.1-1c2.1,3.3-1.7,4-3.6,5.1
		c-10.4,6.1-20.9,11.9-31.3,18c-2.2,1.3-3.9,1.5-6.2,0.1c-11-6.4-22.1-12.7-33.2-19c-1.6-0.9-3.3-2-2.2-4.1c1.2-2.3,3-1.1,4.6-0.3
		c9.2,5.3,18.5,10.5,27.7,15.8c1,0.6,2,1.1,3.4,1.8c0.2-1.1,0.4-1.9,0.4-2.6c0-10,0.1-20.1-0.1-30.1c0-1.3-0.8-3.1-1.8-3.7
		c-9.1-5.4-18.4-10.6-27.6-15.9c-0.5-0.3-1-0.4-2-0.8c0,5.2,0.2,10-0.1,14.8c-0.1,1.3-1.2,3.4-2.2,3.6c-2.5,0.4-2.6-1.7-2.6-3.6
		c0-6-0.2-12.1,0.1-18.1c0.1-1.4,1.2-3.4,2.5-4.1c11.2-6.6,22.5-13,33.8-19.3c1.2-0.7,3.6-0.6,4.8,0.1c11.4,6.3,22.7,12.7,33.8,19.3
		c1.2,0.7,2.3,2.7,2.4,4.2c0.3,6,0.2,12.1,0,18.1c-0.1,1.3-1.4,3.4-2.3,3.5c-2.4,0.3-2.5-1.8-2.5-3.7c0-4.7,0-9.4,0-14.7
		c-1.3,0.6-2.2,0.9-3,1.4c-8.7,5-17.5,9.9-26.1,15c-1.1,0.6-2.3,2.2-2.3,3.4c-0.2,10.6-0.1,21.3-0.1,31.9
		C144.1,95.1,144.3,95.5,144.6,96.3z M110.5,38.6c10.5,6,20.2,11.5,29.9,17c0.8,0.5,2.5,0.1,3.4-0.4c9-5,17.9-10.1,26.7-15.2
		c0.6-0.4,1.2-0.9,2-1.6c-8.6-4.9-17.1-9.4-25.1-14.5c-4.1-2.6-7.3-3-11.4-0.1c-4.1,2.9-8.7,5.1-13.1,7.6
		C119,33.6,115.1,35.9,110.5,38.6z"/>
	<path class="st0" d="M175.6,206.4c-10.6,6.1-20.4,11.7-30.2,17.4c-0.7,0.4-1.3,1.5-1.3,2.2c-0.1,11.1-0.1,22.2-0.1,34.1
		c2.1-1.1,3.7-2,5.2-2.9c8.6-4.9,17.2-9.8,25.9-14.7c1.6-0.9,3.6-2.3,4.9,0.1c1.3,2.3-0.8,3.3-2.5,4.2c-11,6.3-22,12.5-32.9,18.9
		c-2.1,1.2-3.7,1.3-5.9,0c-11-6.4-22.1-12.7-33.2-19c-1.8-1-3.6-2.3-2-4.3c0.6-0.7,3.3-0.6,4.5,0.1c8.6,4.7,17.1,9.6,25.6,14.5
		c1.6,0.9,3.3,1.8,5.3,2.9c0.1-1.3,0.3-2.2,0.3-3c0-9.9,0.1-19.9,0-29.8c0-1.2-0.6-2.9-1.5-3.5c-9.5-5.6-19-11-28.6-16.4
		c-0.3-0.2-0.7-0.1-1.4-0.2c0,4.9,0.2,9.8-0.1,14.5c-0.1,1.3-1.3,3.3-2.3,3.5c-2.3,0.5-2.5-1.6-2.5-3.3c0-6.1-0.1-12.3,0.1-18.4
		c0.1-1.3,1.1-3.2,2.2-3.9c11.3-6.7,22.7-13.2,34.1-19.5c1.2-0.7,3.3-0.7,4.5,0c11.5,6.4,22.8,12.9,34.1,19.5
		c1.2,0.7,2.3,2.5,2.3,3.8c0.2,6.1,0.2,12.3,0,18.4c0,1.2-1.5,2.4-2.3,3.6c-0.8-1.2-2.2-2.4-2.3-3.6
		C175.5,216.8,175.6,212,175.6,206.4z M173.1,202.1c-10.3-5.9-19.9-11.4-29.6-16.8c-1-0.6-3-0.3-4.1,0.3c-5.7,3.1-11.3,6.4-16.9,9.6
		c-3.8,2.2-7.7,4.4-12,6.9c10.3,5.9,20.2,11.5,30,17.1c0.7,0.4,1.9,0.4,2.6,0C152.9,213.7,162.7,208,173.1,202.1z"/>
	<path class="st0" d="M56.7,72.1c0,9.4-0.1,26.5,0,27.3c0.1,1.5-0.4,3.7-2.5,3.7c-1-0.1-2.3-1-2.3-3.5c-0.2-9.4-0.1-18.9-0.1-28.3
		c0-2.9,1.1-4,4-4c15.5,0.1,30.9,0,46.4,0c1.8,0,3.9,0,3.8,2.5c-0.1,2.6-2.2,2.3-4,2.3c-13.3,0-26.7,0-40,0
		C60.3,72.1,58.8,72.1,56.7,72.1z"/>
	<path class="st0" d="M56.7,230.1c0-9.4-0.1-26.5,0-27.3c0.1-1.5-0.4-3.7-2.5-3.7c-1,0.1-2.3,1-2.3,3.5c-0.2,9.4-0.1,18.9-0.1,28.3
		c0,2.9,1.1,4,4,4c15.5-0.1,30.9,0,46.4,0c1.8,0,3.9,0,3.8-2.5c-0.1-2.6-2.2-2.3-4-2.3c-13.3,0-26.7,0-40,0
		C60.3,230.1,58.8,230.1,56.7,230.1z"/>
	<path class="st0" d="M197.9,123.9c10.7,6,20.6,11.6,30.6,17.1c0.5,0.3,1.4,0.4,1.8,0.1c9.9-5.6,19.8-11.3,30.3-17.3
		c-3-1.8-5.5-3.3-8-4.7c-4.5-2.6-9.1-5-13.5-7.8c-0.9-0.6-1.1-2.3-1.6-3.4c1.2-0.3,2.8-1.3,3.6-0.8c8.6,4.7,17.1,9.6,25.5,14.6
		c0.8,0.5,1.3,2.2,1.3,3.3c0.1,13.1,0.1,26.2-0.1,39.2c0,1.3-1.1,3.1-2.3,3.8c-11.2,6.6-22.5,13.1-33.8,19.3
		c-1.3,0.7-3.7,0.7-5.1-0.1c-11.3-6.2-22.4-12.6-33.5-19.2c-1.2-0.7-2.5-2.6-2.5-4c-0.2-12.8-0.1-25.6-0.2-38.5
		c0-2.4,0.8-3.9,2.9-5.1c7.7-4.2,15.1-8.7,22.8-12.9c1.2-0.7,4-0.7,4.5,0c1.4,2-0.3,3.3-2.1,4.3
		C211.9,115.8,205.3,119.7,197.9,123.9z M231.9,181.2c0.7-0.2,1.3-0.2,1.9-0.5c9.2-5.2,18.5-10.5,27.7-15.9c0.9-0.6,1.7-2.2,1.7-3.4
		c0.1-6-0.1-12-0.1-18.1c0-4.9,0-9.7,0-14.6c-0.5,0-0.8,0-1,0.1c-9.6,5.5-19.2,10.9-28.8,16.5c-0.8,0.5-1.5,2-1.5,3.1
		c-0.1,4.2,0.1,8.5,0.1,12.7C231.9,167.7,231.9,174.3,231.9,181.2z M226.6,181.7c0-11.7,0-22.8-0.1-33.9c0-0.9-0.9-2.1-1.8-2.7
		c-5.1-3.2-10.2-6.3-15.4-9.2c-4.4-2.5-9-4.9-13.7-7.4c-0.1,0.9-0.2,1.3-0.2,1.8c0,10.5-0.1,20.9-0.1,31.4c0,1,0.6,2.5,1.4,2.9
		C206.5,170.2,216.3,175.8,226.6,181.7z"/>
	<path class="st0" d="M226.3,72.1c0,9.4,0.1,26.5,0,27.3c-0.1,1.5,0.4,3.7,2.5,3.7c1-0.1,2.3-1,2.3-3.5c0.2-9.4,0.1-18.9,0.1-28.3
		c0-2.9-1.1-4-4-4c-15.5,0.1-30.9,0-46.4,0c-1.8,0-3.9,0-3.8,2.5c0.1,2.6,2.2,2.3,4,2.3c13.3,0,26.7,0,40,0
		C222.6,72.1,224.2,72.1,226.3,72.1z"/>
	<path class="st0" d="M226.3,230.1c0-9.4,0.1-26.5,0-27.3c-0.1-1.5,0.4-3.7,2.5-3.7c1,0.1,2.3,1,2.3,3.5c0.2,9.4,0.1,18.9,0.1,28.3
		c0,2.9-1.1,4-4,4c-15.5-0.1-30.9,0-46.4,0c-1.8,0-3.9,0-3.8-2.5c0.1-2.6,2.2-2.3,4-2.3c13.3,0,26.7,0,40,0
		C222.6,230.1,224.2,230.1,226.3,230.1z"/>
</g>
<path class="st0" d="M141.7,109.1c-18,0-32.6,14.6-32.6,32.6s14.6,32.6,32.6,32.6s32.6-14.6,32.6-32.6S159.7,109.1,141.7,109.1z
	 M127.7,125.3c0.3,0.3,0.6,0.6,0.9,1c0.5,0.5,0.9,0.9,1.4,1.4c0.8,0.8,1.5,1.5,2.3,2.3c0.6,0.6,1.2,1.2,1.8,1.8
	c0.6,0.6,1.2,1.2,1.9,1.8c0.6,0.5,1.1,1.1,1.7,1.5c0.9,0.6,2,1,3.1,1.1c1.4,0.2,2.7-0.1,4-0.7c0.6-0.3,1.2-0.7,1.7-1.2
	c0.8-0.8,1.7-1.7,2.5-2.5c0.6-0.6,1.2-1.2,1.9-1.8c0.6-0.6,1.2-1.2,1.9-1.8c0.6-0.6,1.2-1.2,1.9-1.8c0.3-0.3,0.6-0.6,0.9-0.9
	c0,0,0.1-0.1,0.1-0.1c1.9,0,3.9,0,5.8,0c-0.6,0.6-1.2,1.2-1.8,1.8c-0.6,0.6-1.2,1.2-1.9,1.9c-0.6,0.6-1.2,1.2-1.9,1.8
	c-0.6,0.6-1.2,1.2-1.9,1.8c-0.6,0.6-1.2,1.2-1.9,1.8c-0.6,0.6-1.2,1.2-1.9,1.8c-0.7,0.6-1.3,1.3-2.1,1.9c-1.5,1.1-3.1,1.8-5,2.1
	c-2.1,0.3-4.1,0.1-6.1-0.8c-1.2-0.5-2.2-1.2-3.1-2c-0.4-0.3-0.7-0.7-1.1-1c-1-1-2-2-3-3c-0.8-0.8-1.6-1.6-2.4-2.4
	c-0.6-0.6-1.2-1.2-1.8-1.8c-0.6-0.6-1.3-1.3-1.9-1.9c-0.6-0.6-1.2-1.2-1.8-1.8c-0.1-0.1-0.2-0.2-0.2-0.2
	C123.9,125.3,125.8,125.3,127.7,125.3z M161.4,158.2c-1.9,0-3.8,0-5.7,0c0,0-0.1-0.1-0.1-0.1c-0.8-0.8-1.7-1.7-2.5-2.5
	c-0.6-0.6-1.2-1.2-1.8-1.8c-0.6-0.6-1.3-1.2-1.9-1.9c-0.6-0.6-1.2-1.2-1.8-1.8c-0.5-0.5-1-1-1.5-1.4c-1.1-0.9-2.4-1.3-3.8-1.5
	c-1.3-0.1-2.6,0.1-3.8,0.7c-0.6,0.3-1.2,0.7-1.7,1.2c-0.9,0.9-1.7,1.7-2.6,2.6c-0.6,0.6-1.2,1.2-1.9,1.8c-0.6,0.6-1.2,1.2-1.9,1.8
	s-1.2,1.2-1.9,1.8c-0.3,0.3-0.6,0.6-0.9,0.9c0,0-0.1,0.1-0.1,0.1c-1.9,0-3.8,0-5.7,0c0,0-0.1,0-0.1,0c0,0,0.1-0.1,0.1-0.1
	c0.5-0.5,1-1,1.5-1.5c0.7-0.7,1.3-1.3,2-2c0.6-0.6,1.2-1.2,1.8-1.8c0.6-0.6,1.3-1.2,1.9-1.9c0.6-0.6,1.2-1.2,1.8-1.8
	c0.6-0.6,1.2-1.2,1.9-1.8c0.7-0.6,1.3-1.3,2-1.9c1.4-1.1,2.9-1.7,4.6-2.1c0.9-0.2,1.8-0.2,2.7-0.2c2.6,0.1,4.8,1,6.8,2.7
	c0.2,0.2,0.4,0.3,0.6,0.5c0.9,0.8,1.7,1.7,2.6,2.5c0.6,0.6,1.2,1.2,1.9,1.8c0.6,0.6,1.2,1.2,1.9,1.8c0.6,0.6,1.2,1.2,1.9,1.8
	c0.6,0.6,1.3,1.2,1.9,1.9c0.6,0.6,1.2,1.2,1.8,1.8c0,0,0.1,0.1,0.1,0.1C161.5,158.2,161.5,158.2,161.4,158.2z"/>
</svg>
