<?xml version="1.0" encoding="utf-8"?>
<!-- Generator: Adobe Illustrator 24.1.0, SVG Export Plug-In . SVG Version: 6.00 Build 0)  -->
<svg version="1.1" id="Layer_1" xmlns="http://www.w3.org/2000/svg" xmlns:xlink="http://www.w3.org/1999/xlink" x="0px" y="0px"
	 viewBox="0 0 300 300" style="enable-background:new 0 0 300 300;" xml:space="preserve">
<style type="text/css">
	.st0{fill:#F8F9FA;}
</style>
<path class="st0" d="M138.5,24.4C69.2,30.8,18.2,92.2,24.7,161.5s67.8,120.3,137.1,113.8c60.4-5.6,108.2-53.4,113.8-113.8
	C281.8,92,230.5,30.6,161,24.4C153.5,23.8,146,23.8,138.5,24.4z M217.8,121.6l-74.7,73.9c-4.7,4.5-12.1,4.5-16.7,0l-44-42
	c-4.8-4.6-4.9-12.2-0.3-17s12.2-4.9,17-0.3l35.5,34.1l66.5-65.7c4.8-4.5,12.4-4.3,17,0.5C222.3,109.7,222.3,117,217.8,121.6
	L217.8,121.6z"/>
</svg>
