<?xml version="1.0" encoding="utf-8"?>
<!-- Generator: Adobe Illustrator 24.1.0, SVG Export Plug-In . SVG Version: 6.00 Build 0)  -->
<svg version="1.1" id="Layer_1" xmlns="http://www.w3.org/2000/svg" xmlns:xlink="http://www.w3.org/1999/xlink" x="0px" y="0px"
	 viewBox="0 0 300 300" style="enable-background:new 0 0 300 300;" xml:space="preserve">
<style type="text/css">
	.st0{fill:#FF1C21;}
</style>
<path class="st0" d="M203.6,181.8c5.2,6.9,3.8,16.6-3.1,21.7c-5.6,4.1-13.1,4.1-18.6,0L150,171.7l-31.8,31.8
	c-6.9,5.2-16.6,3.8-21.7-3.1c-4.1-5.6-4.1-13.1,0-18.6l31.8-31.8l-31.8-31.8c-5.2-6.9-3.8-16.6,3.1-21.7c5.6-4.1,13.1-4.1,18.6,0
	l31.8,31.8l31.8-31.8c6.9-5.2,16.6-3.8,21.7,3.1c4.1,5.6,4.1,13.1,0,18.6L171.7,150L203.6,181.8z"/>
</svg>
