<?xml version="1.0" encoding="utf-8"?>
<!-- Generator: Adobe Illustrator 24.1.0, SVG Export Plug-In . SVG Version: 6.00 Build 0)  -->
<svg version="1.1" id="Layer_1" xmlns="http://www.w3.org/2000/svg" xmlns:xlink="http://www.w3.org/1999/xlink" x="0px" y="0px"
	 viewBox="0 0 283.5 283.5" style="enable-background:new 0 0 283.5 283.5;" xml:space="preserve">
<style type="text/css">
	.st0{fill:#FFFFFF;}
</style>
<path class="st0" d="M84.5,183.9c-1.8,2.8-3.5,5.4-5.3,8.3c2.4,1.7,4.6,3.1,6.8,4.6C92.9,188.7,92.8,188.2,84.5,183.9z M77.4,132.1
	c-1.4-0.9-2.8-1.8-4.2-2.7c-0.7-0.4-1.4-0.9-2.1-1.3c-0.4,0.6-0.7,1.1-1.1,1.7c-0.7,1.1-1.5,2.3-2.2,3.4c-0.4,0.6-0.8,1.2-1.2,1.8
	c2.8,1.8,5.5,3.5,8.5,5.4c1.6-2.4,3-4.6,4.5-6.9C78.8,133,78.1,132.6,77.4,132.1z M70.5,159.9c-0.5,0-1.2,0.1-1.9,0.4
	c-2,0.7-4.2,1-6.8,1.6c0.6,2.8,1.1,5.3,1.7,8.2c0,0,0.1,0,0.1,0c0,0,0,0,0,0c2.4-0.6,4.3-1.3,6.2-1.4c4-0.2,4.5-1.9,3.7-5.5
	C72.9,160.9,72.1,159.8,70.5,159.9z M101.5,74.2c-1.3-5.9-2.7-12.1-4.1-18.6C89,57.5,81,59.3,72.8,61.2c1.5,6.7,2.9,12.7,4.2,18.6
	C85.4,77.9,93.3,76.1,101.5,74.2z M150.6,69.7c-5.3-2.2-10.2-4.2-15.6-6.4c-2,5-3.8,9.6-5.7,14.3c5.2,2.1,10.1,4.1,15.6,6.2
	C146.7,79.2,148.6,74.5,150.6,69.7z M208.5,201.1c-14,0.5-27.6-1-40.3-8.1c1.1-2,1.9-3.4,2.7-4.9c1,0.3,1.6,0.6,2.2,0.8
	c20,8.3,40.1,8.6,60.2,0.7c11.9-4.7,16-11.7,14.2-23.2c-4.8,2.5-9.4,5.6-14.4,7.5c-17.3,6.4-35,6.6-52.7,1.8
	c-4.9-1.3-5.1-2.1-2.5-6.9c1.1,0.3,2.2,0.7,3.4,1c17.7,4.8,35.1,4.6,52.2-2.4c11.7-4.7,16.3-12.6,13.9-23.4c-3.6,2.1-7,4.6-10.8,6.2
	c-17.4,7.7-35.4,8.1-53.6,4c-5.3-1.2-5.5-1.8-4.5-7.5c11.7,3.7,23.6,4.9,35.8,3.4c9.6-1.2,18.9-3.4,26.8-9.4
	c8.3-6.3,8.9-13.9,1.8-21.1c-1.2-1.2-2.6-2.2-4.1-3.1c-8.8-5.5-18.7-7.7-28.9-8.2c-14.9-0.8-29.4,0.9-42.6,9.4
	c-25.7-38.2-74.6-42.6-105.9-16.8c-30,25.1-35.6,70.7-8.4,102.4c26.2,30.5,77.3,35.1,108.3-0.4c4.5,3,8.5,6.9,13.3,8.9
	c20.6,8.4,41.3,8.1,61.6-1.1c9.9-4.5,13.1-11.6,11.2-22.6C236,197.2,222.7,200.6,208.5,201.1z M196.3,139.1c0.3-1.3,0.7-2.6,1-3.8
	c-0.2-0.4-0.1-0.5-0.1-0.6c0.2,0.1,0.4,0.2,0.5,0.3c2.1,1,4.3,1.6,6.6,1.4c0.7,0,1.3-0.2,2-0.6c1.2-0.7,1.5-2.2,0.5-3.3
	c-0.5-0.6-1.2-1-1.9-1.2c-1.2-0.5-2.4-0.9-3.5-1.4c-1.2-0.5-2.3-1.1-3.2-2c-1.7-1.6-2.2-3.6-1.7-5.8c0.5-2.4,2.2-4,4.4-4.9
	c0.6-0.2,1.3-0.4,2-0.6V113h3.8v3.3c1,0.1,2,0.2,2.9,0.4c0.9,0.2,1.8,0.5,2.8,0.8c-0.4,1.5-0.8,3-1.2,4.4c-0.2-0.1-0.3-0.1-0.5-0.2
	c-1.8-0.9-3.7-1.3-5.7-1.1c-0.6,0-1.2,0.2-1.7,0.5c-1.3,0.7-1.4,2.2-0.3,3.1c0.9,0.7,2,1.1,3,1.6c1.3,0.5,2.5,1,3.8,1.6
	c1.3,0.6,2.3,1.6,3,2.9c1.3,2.6,0.9,6.5-2.2,8.7c-1.1,0.8-2.4,1.3-3.7,1.5c-0.2,0-0.3,0.1-0.3,0.4v3.7h-3.8V141
	c-0.8-0.1-1.6-0.2-2.4-0.3c-1.4-0.2-2.7-0.6-3.9-1.2C196.3,139.4,196.2,139.3,196.3,139.1z M107.5,208.7c-29.4,0-52.9-23.1-53-52.2
	c-0.1-29.2,23.6-53,52.8-52.8c28.4,0.1,51.8,23.9,51.8,52.7C159.3,184.9,135.8,208.7,107.5,208.7z M139.4,171.6
	C139.4,171.6,139.4,171.6,139.4,171.6c-0.9,1.4-1.8,2.7-2.7,4.1c-0.7,1-1.3,2-2,3c0,0,0,0,0,0c0,0,0,0,0,0.1
	c2.9,1.8,5.5,3.5,8.7,5.6c1.3-2.1,2.5-3.9,3.6-5.8c0.3-0.5,0.7-1.1,1-1.6c-3.1-2-5.7-3.7-8.6-5.5
	C139.5,171.5,139.5,171.6,139.4,171.6z M140.8,146.5c0.5,2.1,0.9,4.1,1.3,6.3h0c1-0.2,1.9-0.4,2.8-0.7c2.7-0.6,5.3-1.3,8-1.9
	c-0.7-2.8-1.3-5.1-2-8.2c-3.7,0.8-7,1.5-10.6,2.3C140.5,145,140.6,145.8,140.8,146.5z M118.8,189.1c-2.8,0.7-5.2,1.2-8.3,1.9
	c0,0,0,0.1,0,0.1c0,0,0,0,0,0c0.3,1.3,0.6,2.6,1,3.9c0.4,1.8,0.8,3.5,1.3,5.2c0.1,0.5,0.2,1,0.4,1.6c3.1-0.8,5.6-1.4,8.3-2.1
	c0,0,0-0.1,0-0.1c0,0,0,0,0,0C120.5,195.9,119.7,192.5,118.8,189.1z M127.9,115.6C127.9,115.6,127.9,115.6,127.9,115.6
	c0,0-0.1,0-0.1,0c-1.6,2.7-3.3,5.4-5.2,8.4c2.5,1.5,4.8,2.9,7,4.3c0,0,0,0,0,0c0,0,0,0,0.1,0C136.4,119.2,137.1,119.5,127.9,115.6z
	 M121.6,159.9c-0.1-5.2-2.6-8.7-6.4-11.5c-1.6-1.2-3.1-2.8-3.8-4.5c-3.8-9.4-7.3-18.8-11.1-28.2c-0.5-1.2-1.8-2.1-2.8-3.2
	c-0.5,1.3-1.4,2.7-1.3,4c0.5,7.5,1.5,15.1,2,22.7c0,0.3,0.1,0.7,0.1,1c0.1,0.7,0.1,1.3,0.2,2s0.1,1.3,0.1,2c0.1,2.6,0.1,5.2-0.9,7.9
	c-0.3,1-0.8,2-1.4,3c-0.2,0.3-0.3,0.6-0.5,0.9c-0.6,1.2-0.9,2.4-1,3.6c0,0.3,0,0.6,0,0.9c0.1,1.2,0.3,2.5,0.8,3.6
	c0.7,1.8,1.9,3.5,3.3,5.1c0.5,0.5,1,1,1.6,1.4c0.3,0.2,0.6,0.4,0.8,0.6c1.1,0.7,2.4,1.3,3.6,1.6c0.3,0.1,0.6,0.2,1,0.2
	c0.7,0.1,1.3,0.2,2,0.2c0.7,0,1.3,0,2-0.1c0.3,0,0.7-0.1,1-0.2c1-0.2,2-0.5,2.9-1C119.1,169.4,121.4,165.1,121.6,159.9
	C121.6,160,121.6,160,121.6,159.9C121.6,159.9,121.6,159.9,121.6,159.9z"/>
</svg>
