<?xml version="1.0" encoding="utf-8"?>
<!-- Generator: Adobe Illustrator 24.1.0, SVG Export Plug-In . SVG Version: 6.00 Build 0)  -->
<svg version="1.1" id="Layer_1" xmlns="http://www.w3.org/2000/svg" xmlns:xlink="http://www.w3.org/1999/xlink" x="0px" y="0px"
	 viewBox="0 0 283.5 283.5" style="enable-background:new 0 0 283.5 283.5;" xml:space="preserve">
<style type="text/css">
	.st0{fill:#FFFFFF;}
</style>
<path class="st0" d="M191.6,91.8c-2.2-2.2-5.8-2.2-8,0l-41.9,41.9L99.9,91.8c-2.2-2.2-5.8-2.2-8,0c-2.2,2.2-2.2,5.8,0,8l41.9,41.9
	l-41.9,41.9c-2.2,2.2-2.2,5.8,0,8c1.1,1.1,2.6,1.7,4,1.7c1.5,0,2.9-0.6,4-1.7l41.9-41.9l41.9,41.9c1.1,1.1,2.6,1.7,4,1.7
	c1.5,0,2.9-0.6,4-1.7c2.2-2.2,2.2-5.8,0-8l-41.9-41.9l41.9-41.9C193.9,97.6,193.9,94,191.6,91.8z M141.7,35.4
	c-58.6,0-106.3,47.7-106.3,106.3S83.1,248,141.7,248S248,200.3,248,141.7S200.3,35.4,141.7,35.4z M141.7,236.7
	c-52.3,0-94.9-42.6-94.9-94.9s42.6-94.9,94.9-94.9s94.9,42.6,94.9,94.9S194.1,236.7,141.7,236.7z"/>
</svg>
