<?xml version="1.0" encoding="utf-8"?>
<!-- Generator: Adobe Illustrator 24.1.0, SVG Export Plug-In . SVG Version: 6.00 Build 0)  -->
<svg version="1.1" id="Layer_1" xmlns="http://www.w3.org/2000/svg" xmlns:xlink="http://www.w3.org/1999/xlink" x="0px" y="0px"
	 viewBox="0 0 300 300" style="enable-background:new 0 0 300 300;" xml:space="preserve">
<style type="text/css">
	.st0{fill:#F8F9FA;}
</style>
<path class="st0" d="M150,24C80.4,24,24,80.4,24,150s56.4,126,126,126s126-56.4,126-126C275.9,80.5,219.5,24.1,150,24z M191.4,174.6
	c4,5.3,2.9,12.8-2.4,16.8c-4.3,3.2-10.1,3.2-14.4,0L150,166.8l-24.6,24.6c-5.3,4-12.8,2.9-16.8-2.4c-3.2-4.3-3.2-10.1,0-14.4
	l24.6-24.6l-24.6-24.6c-4-5.3-2.9-12.8,2.4-16.8c4.3-3.2,10.1-3.2,14.4,0l24.6,24.6l24.6-24.6c5.3-4,12.8-2.9,16.8,2.4
	c3.2,4.3,3.2,10.1,0,14.4L166.8,150L191.4,174.6z"/>
</svg>
