<?xml version="1.0" encoding="utf-8"?>
<!-- Generator: Adobe Illustrator 24.1.0, SVG Export Plug-In . SVG Version: 6.00 Build 0)  -->
<svg version="1.1" id="Layer_1" xmlns="http://www.w3.org/2000/svg" xmlns:xlink="http://www.w3.org/1999/xlink" x="0px" y="0px"
	 viewBox="0 0 283.5 283.5" style="enable-background:new 0 0 283.5 283.5;" xml:space="preserve">
<style type="text/css">
	.st0{fill:#FFFFFF;}
</style>
<g>
	<path class="st0" d="M35.4,99c1-13.5,2-27.1,3-40.6c0.5-5.8,2.3-7.7,8-9.3c30.6-8.5,61.2-17,91.8-25.6c2.9-0.8,5.6-0.5,8.4,0.3
		c30.5,8.5,61.1,17,91.6,25.5c4.6,1.3,6.5,3.4,7.1,8.6c1.7,14.8,2.6,29.7,2.6,44.7c0,14.7-0.8,29.3-3,43.9
		c-2.7,17.2-6.8,34-15.7,49.2c-5.6,9.5-12.6,17.9-20.4,25.7c-14.9,15-32.1,26.4-51.7,34.3c-3.4,1.4-6.8,2.4-10.2,3.8
		c-3.4,1.3-6.6,1.1-10.1,0c-22.5-7.3-42.4-19.2-59.4-35.6c-9.4-9-17.8-18.9-24.1-30.4c-5.3-9.6-8.6-19.8-11.2-30.4
		c-4.1-17-5.7-34.3-6.2-51.7c-0.1-4.1,0-8.2,0-12.3C35.8,99.1,35.6,99,35.4,99z M132.9,143.7c-0.5-0.5-1-0.9-1.5-1.4
		c-8.2-8.2-16.4-16.5-24.7-24.6c-4-4-8.3-4-12.3,0c-2.2,2.2-4.4,4.4-6.6,6.6c-4,4.1-4,8.4,0,12.4c12.8,12.8,25.5,25.5,38.3,38.3
		c4.8,4.8,8.8,4.8,13.5,0c6.1-6.1,12.2-12.2,18.3-18.3c14.9-14.9,29.8-29.7,44.6-44.6c4.3-4.3,4.3-8.5,0-12.8c-2-2-3.9-4-5.9-5.9
		c-4.6-4.5-8.7-4.5-13.3,0c-16.3,16.3-32.7,32.7-49,49C133.9,142.8,133.4,143.2,132.9,143.7z"/>
</g>
</svg>
