<?xml version="1.0" encoding="utf-8"?>
<!-- Generator: Adobe Illustrator 24.1.0, SVG Export Plug-In . SVG Version: 6.00 Build 0)  -->
<svg version="1.1" id="Layer_1" xmlns="http://www.w3.org/2000/svg" xmlns:xlink="http://www.w3.org/1999/xlink" x="0px" y="0px"
	 viewBox="0 0 925 283.5" style="enable-background:new 0 0 925 283.5;" xml:space="preserve">
<style type="text/css">
	.st0{fill:#FFFFFF;}
	.st1{display:none;}
	.st2{display:inline;}
</style>
<polygon class="st0" points="84.1,236.8 115.6,236.8 151.6,178.2 187.7,236.8 250.7,236.8 187.7,141.7 187.9,141.7 250.9,46.6 
	219.4,46.6 "/>
<polygon class="st0" points="64.1,236.8 32.6,236.8 95.6,141.7 95.8,141.7 32.8,46.6 95.8,46.6 131.8,105.3 167.9,46.6 199.4,46.6 
	"/>
<g class="st1">
	<path class="st2" d="M260.9,236.8V46.6h61.6c23.4,0,38.6,1,45.7,2.9c10.9,2.9,20,9.1,27.4,18.6c7.4,9.6,11,21.9,11,37
		c0,11.7-2.1,21.5-6.4,29.5c-4.2,8-9.6,14.2-16.2,18.7c-6.5,4.5-13.2,7.5-19.9,9c-9.2,1.8-22.4,2.7-39.8,2.7h-25v71.7h-38.4V236.8z
		 M299.3,78.8v54h21c15.1,0,25.3-1,30.4-3s9.1-5.1,12-9.3c2.9-4.2,4.3-9.2,4.3-14.8c0-6.9-2-12.6-6.1-17.1s-9.2-7.3-15.4-8.4
		c-4.6-0.9-13.8-1.3-27.6-1.3L299.3,78.8L299.3,78.8z"/>
	<path class="st2" d="M419.1,236.8V48.2h38.4v156.6H553v32H419.1z"/>
	<path class="st2" d="M569.2,236.8V46.6h38.4v190.2L569.2,236.8L569.2,236.8z"/>
	<path class="st2" d="M677,236.8v-158h-56.4V46.6h151.2v32.2h-56.3v158H677z"/>
</g>
<g>
	<path class="st0" d="M274.5,46.6h97.7c21.3,0,37.2,5.1,47.8,15.2s15.9,24.5,15.9,43.2c0,19.2-5.8,34.2-17.4,45
		c-11.6,10.9-29.2,16.2-52.8,16.2h-32.1v70.6h-59L274.5,46.6L274.5,46.6z M333.5,127.6h14.4c11.4,0,19.3-2,23.9-5.9
		c4.5-3.9,6.8-9,6.8-15.1c0-6-2-11.1-6-15.2c-3.9-4.1-11.5-6.2-22.4-6.2h-16.7v42.4H333.5z"/>
	<path class="st0" d="M456.2,46.6h58.7v143.3h91.7v46.8H456.2V46.6z"/>
	<path class="st0" d="M625.3,46.6h58.9v190.1h-58.9V46.6z"/>
	<path class="st0" d="M702.8,46.6h178.6v46.9h-60v143.2h-58.7V93.5h-60V46.6z"/>
</g>
</svg>
